HIERARCHY
ROOT Hips
{
	OFFSET 0.00000 0.00000 0.00000
	CHANNELS 6 Xposition Yposition Zposition Zrotation Yrotation Xrotation 
	JOINT LHipJoint
	{
		OFFSET 0 0 0
		CHANNELS 3 Zrotation Yrotation Xrotation
		JOINT LeftHip
		{
			OFFSET 1.30186 -1.90722 0.65024
			CHANNELS 3 Zrotation Yrotation Xrotation
			JOINT LeftKnee
			{
				OFFSET 2.56413 -7.04489 0.00000
				CHANNELS 3 Zrotation Yrotation Xrotation
				JOINT LeftAnkle
				{
					OFFSET 2.79321 -7.67428 0.00000
					CHANNELS 3 Zrotation Yrotation Xrotation
					JOINT LeftToe
					{
						OFFSET 0.15723 -0.43198 2.08537
						CHANNELS 3 Zrotation Yrotation Xrotation
						End Site
						{
							OFFSET 0.00000 -0.00000 1.07411
						}
					}
				}
			}
		}
	}
	JOINT RHipJoint
	{
		OFFSET 0 0 0
		CHANNELS 3 Zrotation Yrotation Xrotation
		JOINT RightHip
		{
			OFFSET -1.28627 -1.90723 0.65024
			CHANNELS 3 Zrotation Yrotation Xrotation
			JOINT RightKnee
			{
				OFFSET -2.56567 -7.04913 0.00000
				CHANNELS 3 Zrotation Yrotation Xrotation
				JOINT RightAnkle
				{
					OFFSET -2.75597 -7.57198 0.00000
					CHANNELS 3 Zrotation Yrotation Xrotation
					JOINT RightToe
					{
						OFFSET -0.17500 -0.48081 2.22901
						CHANNELS 3 Zrotation Yrotation Xrotation
						End Site
						{
							OFFSET -0.00000 -0.00000 1.14762
						}
					}
				}
			}
		}
	}
	JOINT lowerback
	{
		OFFSET 0 0 0
		CHANNELS 3 Zrotation Yrotation Xrotation
		JOINT Chest
		{
			OFFSET -0.04522 2.07467 -0.16566
			CHANNELS 3 Zrotation Yrotation Xrotation
			JOINT Chest2
			{
				OFFSET -0.01178 2.08825 -0.05393
				CHANNELS 3 Zrotation Yrotation Xrotation
				JOINT lowerneck
				{
					OFFSET 0 0 0
					CHANNELS 3 Zrotation Yrotation Xrotation
					JOINT Neck
					{
						OFFSET -0.05182 1.80489 0.16014
						CHANNELS 3 Zrotation Yrotation Xrotation
						JOINT Head
						{
							OFFSET 0.14739 1.78840 -0.33342
							CHANNELS 3 Zrotation Yrotation Xrotation
							End Site
							{
								OFFSET 0.04364 1.83899 -0.13460
							}
						}
					}
				}
				JOINT LeftCollar
				{
					OFFSET 0 0 0
					CHANNELS 3 Zrotation Yrotation Xrotation
					JOINT LeftShoulder
					{
						OFFSET 3.01264 1.29090 -0.06579
CHANNELS 3 Zrotation Xrotation Yrotation
						JOINT LeftElbow
						{
OFFSET 0 -5.556800 0.000000
CHANNELS 3 Zrotation Xrotation Yrotation
							JOINT LeftWrist
							{
OFFSET 0 -3.639790 -0.000000
CHANNELS 3 Zrotation Xrotation Yrotation
								JOINT lhand
								{
									OFFSET 0 0 0
CHANNELS 3 Zrotation Xrotation Yrotation
									JOINT LFingers
									{
OFFSET 0 -0.569420 -0.000000
CHANNELS 3 Zrotation Xrotation Yrotation
										End Site
										{
OFFSET 0 -0.459080 -0.000000
										}
									}
								}
								JOINT LThumb
								{
OFFSET 0 0.000000 0.000000
CHANNELS 3 Zrotation Xrotation Yrotation
									End Site
									{
OFFSET 0 -0.466090 0.466090
									}
								}
							}
						}
					}
				}
				JOINT RightCollar
				{
					OFFSET 0 0 0
					CHANNELS 3 Zrotation Yrotation Xrotation
					JOINT RightShoulder
					{
						OFFSET -3.15796 1.37283 -0.36748
CHANNELS 3 Zrotation Xrotation Yrotation
						JOINT RightElbow
						{
OFFSET 0 -5.343390 0.000000
CHANNELS 3 Zrotation Xrotation Yrotation
							JOINT RightWrist
							{
OFFSET 0 -3.651010 -0.000000
CHANNELS 3 Zrotation Xrotation Yrotation
								JOINT rhand
								{
									OFFSET 0 0 0
CHANNELS 3 Zrotation Xrotation Yrotation
									JOINT RFingers
									{
OFFSET 0 -0.694250 -0.000000
CHANNELS 3 Zrotation Xrotation Yrotation
										End Site
										{
OFFSET 0 -0.559720 -0.000000
										}
									}
								}
								JOINT RThumb
								{
OFFSET 0 0.000000 0.000000
CHANNELS 3 Zrotation Xrotation Yrotation
									End Site
									{
OFFSET 0 -0.568270 0.568270
									}
								}
							}
						}
					}
				}
			}
		}
	}
}
MOTION
Frames: 5
Frame Time: 0.008333333333333333
1.891361 18.376068 2.160400 -4.029262 -4.116290 4.183693 0.000000 0.000000 0.000000 -9.696419 -16.142603 -26.466817 0.988739 6.327165 17.737337 0.217482 3.505713 -10.802833 0.741175 -5.494845 -15.326818 0.000000 0.000000 0.000000 29.165963 -0.603171 15.627619 -0.258734 -3.269517 9.030195 -0.021237 4.471544 -3.868767 -0.234852 3.100740 -8.560694 4.576015 1.810108 1.408395 1.221773 2.436991 1.559767 -1.316984 1.257036 0.951104 -2.102464 -1.629344 -14.504293 -0.534061 -1.681802 11.840230 0.015251 -0.955396 5.977638 0.000000 0.000000 0.000000 35.674881 10.154914 -52.849296 86.933389 -59.964361 57.344487 27.302627 -1.102138 -7.681308 0.000000 0.000000 0.000000 -7.125000 0.000000 0.000000 0.412926 38.610001 0.065055 0.000000 0.000000 0.000000 -8.561492 -19.989998 36.371057 -35.416377 -45.106923 -15.107632 -24.923006 -22.336878 -34.664138 0.000000 0.000000 0.000000 7.125000 0.000000 0.000000 4.322715 -7.251544 4.846804
1.893683 18.362403 2.240599 -4.153387 -4.232269 4.154080 0.000000 0.000000 0.000000 -9.730258 -15.953808 -26.402452 1.031218 6.456695 18.116411 0.191447 3.497339 -10.289700 0.801125 -5.705336 -15.933854 0.000000 0.000000 0.000000 29.254689 -0.523314 15.752658 -0.280202 -3.400151 9.395185 -0.012711 4.583831 -3.652300 -0.190356 2.777619 -7.662283 4.621044 1.836524 1.385785 1.263719 2.470372 1.570501 -1.297952 1.274507 0.976911 -2.154192 -1.650431 -14.611480 -0.502582 -1.700605 11.927091 0.030552 -0.964988 6.024113 0.000000 0.000000 0.000000 35.606443 10.326542 -52.755888 87.073767 -59.967482 57.466062 27.259882 -0.886813 -7.743123 0.000000 0.000000 0.000000 -7.125000 0.000000 0.000000 0.372579 38.676003 0.058166 0.000000 0.000000 0.000000 -8.637276 -19.743195 36.463170 -35.550931 -45.201168 -15.203095 -24.875617 -22.322033 -34.572215 0.000000 0.000000 0.000000 7.125000 0.000000 0.000000 4.331546 -7.146032 4.849811
1.896005 18.348738 2.320799 -4.277512 -4.348248 4.124467 0.000000 0.000000 0.000000 -9.764096 -15.765013 -26.338087 1.073697 6.586225 18.495484 0.165412 3.488965 -9.776567 0.861075 -5.915827 -16.540889 0.000000 0.000000 0.000000 29.343415 -0.443457 15.877696 -0.301669 -3.530784 9.760176 -0.004184 4.696118 -3.435833 -0.145860 2.454499 -6.763872 4.666073 1.862940 1.363176 1.305665 2.503754 1.581235 -1.278921 1.291978 1.002718 -2.205921 -1.671518 -14.718667 -0.471104 -1.719408 12.013952 0.045854 -0.974580 6.070589 0.000000 0.000000 0.000000 35.538005 10.498170 -52.662481 87.214145 -59.970603 57.587637 27.217137 -0.671488 -7.804938 0.000000 0.000000 0.000000 -7.125000 0.000000 0.000000 0.332232 38.742005 0.051276 0.000000 0.000000 0.000000 -8.713061 -19.496392 36.555284 -35.685486 -45.295413 -15.298558 -24.828228 -22.307188 -34.480292 0.000000 0.000000 0.000000 7.125000 0.000000 0.000000 4.340377 -7.040520 4.852818
1.898493 18.341518 2.401032 -4.237421 -4.393697 4.153656 0.000000 0.000000 0.000000 -9.876505 -15.865583 -26.367341 1.122189 6.726319 18.908179 0.131170 3.696568 -9.176525 0.850395 -5.880541 -16.438468 0.000000 0.000000 0.000000 29.280349 -0.348617 15.970243 -0.319416 -3.630987 10.040882 0.003279 4.709835 -3.168703 -0.170199 2.638180 -7.274075 4.537882 1.866234 1.334021 1.319704 2.507435 1.531637 -1.193412 1.291077 0.961815 -2.272466 -1.705196 -14.709775 -0.489159 -1.748344 12.016993 0.048199 -0.993208 6.070885 0.000000 0.000000 0.000000 35.474185 10.665247 -52.653756 87.262398 -59.971631 57.629412 27.400468 -0.551344 -7.631840 0.000000 0.000000 0.000000 -7.125000 0.000000 0.000000 0.499157 38.561333 0.080798 0.000000 0.000000 0.000000 -8.806984 -19.173809 36.624009 -35.789642 -45.367632 -15.372659 -24.767218 -22.295599 -34.464447 0.000000 0.000000 0.000000 7.125000 0.000000 0.000000 4.370702 -7.009426 4.884827
1.901005 18.335238 2.481270 -4.173398 -4.428868 4.191415 0.000000 0.000000 0.000000 -10.000363 -16.008321 -26.410239 1.171557 6.867953 19.325773 0.095733 3.935644 -8.563818 0.829422 -5.809439 -16.232659 0.000000 0.000000 0.000000 29.195163 -0.251593 16.058056 -0.336621 -3.726754 10.309305 0.010587 4.709188 -2.894189 -0.204571 2.895718 -7.989553 4.384448 1.866157 1.303913 1.329677 2.506788 1.473248 -1.098215 1.287499 0.911190 -2.341170 -1.740709 -14.683968 -0.514434 -1.778757 12.007820 0.048655 -1.013154 6.064453 0.000000 0.000000 0.000000 35.411037 10.831660 -52.657372 87.297226 -59.972354 57.659558 27.616744 -0.445071 -7.424508 0.000000 0.000000 0.000000 -7.125000 0.000000 0.000000 0.696287 38.344714 0.115626 0.000000 0.000000 0.000000 -8.903551 -18.840183 36.689326 -35.889368 -45.436641 -15.443647 -24.704223 -22.284485 -34.459689 0.000000 0.000000 0.000000 7.125000 0.000000 0.000000 4.404160 -6.989176 4.921064
